<?xml version="1.0" encoding="UTF-8" standalone="no" ?>
<!DOCTYPE svg PUBLIC "-//W3C//DTD SVG 1.1//EN" "http://www.w3.org/Graphics/SVG/1.1/DTD/svg11.dtd">
<svg xmlns="http://www.w3.org/2000/svg" xmlns:xlink="http://www.w3.org/1999/xlink" version="1.1" width="1080" height="1080" viewBox="0 0 1080 1080" xml:space="preserve">
<desc>Created with Fabric.js 5.2.4</desc>
<defs>
</defs>
<rect x="0" y="0" width="100%" height="100%" fill="transparent"></rect>
<g transform="matrix(1 0 0 1 540 540)" id="ade24d17-31ec-4e1b-bc98-4c4f02e4a927"  >
<rect style="stroke: none; stroke-width: 1; stroke-dasharray: none; stroke-linecap: butt; stroke-dashoffset: 0; stroke-linejoin: miter; stroke-miterlimit: 4; fill: rgb(51,51,51); fill-rule: nonzero; opacity: 1;" vector-effect="non-scaling-stroke"  x="-540" y="-540" rx="0" ry="0" width="1080" height="1080" />
</g>
<g transform="matrix(1 0 0 1 540 540)" id="b49f5780-3ffe-448c-85a4-9dddfb800cbe"  >
</g>
<g transform="matrix(1 0 0 1 540 540)" id="4d489724-9d2e-425d-8375-368234582108"  >
<path style="stroke: rgb(0,0,0); stroke-width: 0; stroke-dasharray: none; stroke-linecap: butt; stroke-dashoffset: 0; stroke-linejoin: miter; stroke-miterlimit: 4; fill: rgb(255,255,255); fill-rule: nonzero; opacity: 1;" vector-effect="non-scaling-stroke"  transform=" translate(-256, -256)" d="M 0 32 C 0 14.3 14.3 0 32 0 L 480 0 C 497.7 0 512 14.3 512 32 C 512 49.7 497.7 64 480 64 L 480 448 C 497.7 448 512 462.3 512 480 C 512 497.7 497.7 512 480 512 L 304 512 L 304 464 C 304 437.5 282.5 416 256 416 C 229.5 416 208 437.5 208 464 L 208 512 L 32 512 C 14.3 512 0 497.7 0 480 C 0 462.3 14.3 448 32 448 L 32 64 C 14.3 64 0 49.7 0 32 z M 96 112 L 96 144 C 96 152.8 103.2 160 112 160 L 144 160 C 152.8 160 160 152.8 160 144 L 160 112 C 160 103.2 152.8 96 144 96 L 112 96 C 103.2 96 96 103.2 96 112 z M 240 96 C 231.2 96 224 103.2 224 112 L 224 144 C 224 152.8 231.2 160 240 160 L 272 160 C 280.8 160 288 152.8 288 144 L 288 112 C 288 103.2 280.8 96 272 96 L 240 96 z M 352 112 L 352 144 C 352 152.8 359.2 160 368 160 L 400 160 C 408.8 160 416 152.8 416 144 L 416 112 C 416 103.2 408.8 96 400 96 L 368 96 C 359.2 96 352 103.2 352 112 z M 112 192 C 103.2 192 96 199.2 96 208 L 96 240 C 96 248.8 103.2 256 112 256 L 144 256 C 152.8 256 160 248.8 160 240 L 160 208 C 160 199.2 152.8 192 144 192 L 112 192 z M 224 208 L 224 240 C 224 248.8 231.2 256 240 256 L 272 256 C 280.8 256 288 248.8 288 240 L 288 208 C 288 199.2 280.8 192 272 192 L 240 192 C 231.2 192 224 199.2 224 208 z M 368 192 C 359.2 192 352 199.2 352 208 L 352 240 C 352 248.8 359.2 256 368 256 L 400 256 C 408.8 256 416 248.8 416 240 L 416 208 C 416 199.2 408.8 192 400 192 L 368 192 z M 328 384 C 341.3 384 352.3 373.1 349 360.2 C 338.4 318.7 300.8 288 256 288 C 211.2 288 173.5 318.7 163 360.2 C 159.7 373 170.8 384 184 384 L 328 384 z" stroke-linecap="round" />
</g>
</svg>