<?xml version="1.0" encoding="UTF-8" standalone="no" ?>
<!DOCTYPE svg PUBLIC "-//W3C//DTD SVG 1.1//EN" "http://www.w3.org/Graphics/SVG/1.1/DTD/svg11.dtd">
<svg xmlns="http://www.w3.org/2000/svg" xmlns:xlink="http://www.w3.org/1999/xlink" version="1.1" width="1080" height="1080" viewBox="0 0 1080 1080" xml:space="preserve">
<desc>Created with Fabric.js 5.2.4</desc>
<defs>
</defs>
<g transform="matrix(1 0 0 1 540 540)" id="b49f5780-3ffe-448c-85a4-9dddfb800cbe"  >
</g>
<g transform="matrix(1 0 0 1 540 540)" id="ade24d17-31ec-4e1b-bc98-4c4f02e4a927"  >
<rect style="stroke: none; stroke-width: 1; stroke-dasharray: none; stroke-linecap: butt; stroke-dashoffset: 0; stroke-linejoin: miter; stroke-miterlimit: 4; fill: rgb(51,51,51); fill-rule: nonzero; opacity: 1;" vector-effect="non-scaling-stroke"  x="-540" y="-540" rx="0" ry="0" width="1080" height="1080" />
</g>
<g transform="matrix(1 0 0 1 540 540)" id="5b48b8fa-1f4d-46bc-a46a-f4d89ee3b58f"  >
<path style="stroke: rgb(0,0,0); stroke-width: 0; stroke-dasharray: none; stroke-linecap: butt; stroke-dashoffset: 0; stroke-linejoin: miter; stroke-miterlimit: 4; fill: rgb(255,255,255); fill-rule: nonzero; opacity: 1;" vector-effect="non-scaling-stroke"  transform=" translate(-320, -256)" d="M 96 64 C 96 46.3 110.3 32 128 32 L 160 32 C 177.7 32 192 46.3 192 64 L 192 224 L 192 288 L 192 448 C 192 465.7 177.7 480 160 480 L 128 480 C 110.3 480 96 465.7 96 448 L 96 384 L 64 384 C 46.3 384 32 369.7 32 352 L 32 288 C 14.3 288 0 273.7 0 256 C 0 238.3 14.3 224 32 224 L 32 160 C 32 142.3 46.3 128 64 128 L 96 128 L 96 64 z M 544 64 L 544 128 L 576 128 C 593.7 128 608 142.3 608 160 L 608 224 C 625.7 224 640 238.3 640 256 C 640 273.7 625.7 288 608 288 L 608 352 C 608 369.7 593.7 384 576 384 L 544 384 L 544 448 C 544 465.7 529.7 480 512 480 L 480 480 C 462.3 480 448 465.7 448 448 L 448 288 L 448 224 L 448 64 C 448 46.3 462.3 32 480 32 L 512 32 C 529.7 32 544 46.3 544 64 z M 416 224 L 416 288 L 224 288 L 224 224 L 416 224 z" stroke-linecap="round" />
</g>
</svg>